  <svg
    class="network"
    width="100%"
    height="auto"
    viewBox="0 0 5027 1696"
    fill="none"
    xmlns="http://www.w3.org/2000/svg"
  >
    <circle cx="988" cy="325" r="120" fill="#FF7D17" />
    <circle cx="1126" cy="766" r="25" fill="#FF7D17" />
    <circle cx="865" cy="832" r="25" fill="#FF7D17" />
    <circle cx="768" cy="119" r="25" fill="#FF7D17" />
    <circle cx="948" cy="736" r="30" stroke="#FF7D17" stroke-width="10" />
    <line
      x1="976.984"
      y1="438.395"
      x2="955.984"
      y2="703.395"
      stroke="#FF7D17"
      stroke-width="10"
    />
    <line
      x1="1103.21"
      y1="761.937"
      x2="978.21"
      y2="741.937"
      stroke="#FF7D17"
      stroke-width="10"
    />
    <line
      x1="878.263"
      y1="815.678"
      x2="926.263"
      y2="761.678"
      stroke="#FF7D17"
      stroke-width="10"
    />
    <line
      x1="896.797"
      y1="30.5892"
      x2="951.797"
      y2="217.589"
      stroke="#FF7D17"
      stroke-width="10"
    />
    <line
      x1="841.67"
      y1="35.3959"
      x2="779.67"
      y2="102.396"
      stroke="#FF7D17"
      stroke-width="10"
    />
    <circle cx="1668" cy="1448" r="25" fill="#0096DE" />
    <circle cx="1325" cy="984" r="25" fill="#0096DE" />
    <circle cx="1278" cy="832" r="25" fill="#0096DE" />
    <circle cx="1193" cy="1055" r="30" fill="#0096DE" />
    <circle cx="1406" cy="1139" r="60" stroke="#0096DE" stroke-width="10" />
    <circle cx="1524" cy="1421" r="30" fill="#0096DE" />
    <circle cx="1266" cy="1520" r="115" fill="#0096DE" />
    <line
      x1="1384.72"
      y1="1199.65"
      x2="1307.72"
      y2="1420.65"
      stroke="#0096DE"
      stroke-width="10"
    />
    <line
      x1="1431.61"
      y1="1199.06"
      x2="1514.61"
      y2="1396.06"
      stroke="#0096DE"
      stroke-width="10"
    />
    <line
      x1="1548.85"
      y1="1424.07"
      x2="1646.85"
      y2="1441.07"
      stroke="#0096DE"
      stroke-width="10"
    />
    <line
      x1="1344.17"
      y1="1115.65"
      x2="1217.17"
      y2="1065.65"
      stroke="#0096DE"
      stroke-width="10"
    />
    <line
      x1="1201.33"
      y1="1028.2"
      x2="1270.33"
      y2="849.202"
      stroke="#0096DE"
      stroke-width="10"
    />
    <line
      x1="1215.62"
      y1="1040.6"
      x2="1302.62"
      y2="993.601"
      stroke="#0096DE"
      stroke-width="10"
    />
    <circle cx="1809" cy="647" r="135" fill="#30B808" />
    <circle cx="2367" cy="539" r="25" fill="#30B808" />
    <circle cx="2019" cy="311" r="25" fill="#30B808" />
    <circle cx="1695" cy="1265" r="25" fill="#30B808" />
    <circle cx="1546" cy="756" r="25" fill="#30B808" />
    <circle cx="1482" cy="597" r="25" fill="#30B808" />
    <circle cx="1369" cy="111" r="25" fill="#30B808" />
    <circle cx="2551" cy="747" r="25" fill="#30B808" />
    <ellipse cx="1921.5" cy="417" rx="29.5" ry="30" fill="#30B808" />
    <circle cx="1626" cy="837" r="30" fill="#30B808" />
    <circle cx="2281" cy="642" r="30" stroke="#30B808" stroke-width="10" />
    <circle cx="1653" cy="1125" r="30" stroke="#30B808" stroke-width="10" />
    <circle cx="1589" cy="309" r="60" stroke="#30B808" stroke-width="10" />
    <line
      x1="1664.22"
      y1="1094.53"
      x2="1763.22"
      y2="772.531"
      stroke="#30B808"
      stroke-width="10"
    />
    <line
      x1="1686.18"
      y1="1246.35"
      x2="1660.18"
      y2="1153.35"
      stroke="#30B808"
      stroke-width="10"
    />
    <line
      x1="1646.02"
      y1="1092.43"
      x2="1626.02"
      y2="860.429"
      stroke="#30B808"
      stroke-width="10"
    />
    <line
      x1="1604.39"
      y1="822.46"
      x2="1558.39"
      y2="774.46"
      stroke="#30B808"
      stroke-width="10"
    />
    <line
      x1="1487.32"
      y1="574.239"
      x2="1566.32"
      y2="364.24"
      stroke="#30B808"
      stroke-width="10"
    />
    <line
      x1="1541.69"
      y1="266.745"
      x2="1385.69"
      y2="128.745"
      stroke="#30B808"
      stroke-width="10"
    />
    <line
      x1="1741.85"
      y1="538.79"
      x2="1622.85"
      y2="361.79"
      stroke="#30B808"
      stroke-width="10"
    />
    <line
      x1="1900.55"
      y1="408.787"
      x2="1645.55"
      y2="331.787"
      stroke="#30B808"
      stroke-width="10"
    />
    <line
      x1="2009.77"
      y1="323.282"
      x2="1942.77"
      y2="400.282"
      stroke="#30B808"
      stroke-width="10"
    />
    <line
      x1="2250.89"
      y1="649.999"
      x2="1936.89"
      y2="642.999"
      stroke="#30B808"
      stroke-width="10"
    />
    <line
      x1="2355.91"
      y1="553.116"
      x2="2304.91"
      y2="617.116"
      stroke="#30B808"
      stroke-width="10"
    />
    <line
      x1="2534.15"
      y1="743.645"
      x2="2308.15"
      y2="653.645"
      stroke="#30B808"
      stroke-width="10"
    />
    <circle cx="2639" cy="1127" r="30" fill="#FF7D17" />
    <circle cx="2404" cy="1244" r="60" stroke="#FF7D17" stroke-width="10" />
    <circle cx="3390" cy="1400" r="60" stroke="#FF7D17" stroke-width="10" />
    <circle cx="2088" cy="1137" r="30" fill="#FF7D17" />
    <circle cx="2634" cy="982" r="25" fill="#FF7D17" />
    <circle cx="2232" cy="1307" r="25" fill="#FF7D17" />
    <circle cx="2963" cy="1167" r="25" fill="#FF7D17" />
    <circle cx="3296" cy="1168" r="30" fill="#FF7D17" />
    <circle cx="3406" cy="1076" r="20" fill="#FF7D17" />
    <circle cx="2801" cy="1435" r="115" fill="#FF7D17" />
    <line
      x1="2630"
      y1="1108.91"
      x2="2631.98"
      y2="994.913"
      stroke="#FF7D17"
      stroke-width="10"
    />
    <line
      x1="2660.44"
      y1="1136.02"
      x2="2945.44"
      y2="1161.02"
      stroke="#FF7D17"
      stroke-width="10"
    />
    <line
      x1="2456.93"
      y1="1212.45"
      x2="2621.93"
      y2="1137.45"
      stroke="#FF7D17"
      stroke-width="10"
    />
    <line
      x1="2460.19"
      y1="1270.51"
      x2="2708.19"
      y2="1391.51"
      stroke="#FF7D17"
      stroke-width="10"
    />
    <line
      x1="2107.62"
      y1="1142.27"
      x2="2346.62"
      y2="1224.27"
      stroke="#FF7D17"
      stroke-width="10"
    />
    <line
      x1="2252.57"
      y1="1296.21"
      x2="2346.57"
      y2="1268.21"
      stroke="#FF7D17"
      stroke-width="10"
    />
    <line
      x1="2630.08"
      y1="1555.94"
      x2="2708.08"
      y2="1499.94"
      stroke="#FF7D17"
      stroke-width="10"
    />
    <line
      x1="3328.24"
      y1="1409.99"
      x2="2909.24"
      y2="1429.99"
      stroke="#FF7D17"
      stroke-width="10"
    />
    <line
      x1="3273.07"
      y1="1549.91"
      x2="3354.07"
      y2="1446.91"
      stroke="#FF7D17"
      stroke-width="10"
    />
    <line
      x1="3307.63"
      y1="1188.12"
      x2="3370.63"
      y2="1343.12"
      stroke="#FF7D17"
      stroke-width="10"
    />
    <line
      x1="3395.29"
      y1="1085.77"
      x2="3317.29"
      y2="1153.77"
      stroke="#FF7D17"
      stroke-width="10"
    />
    <circle cx="3798" cy="428" r="30" stroke="#30B808" stroke-width="10" />
    <circle cx="3876" cy="1336" r="30" stroke="#30B808" stroke-width="10" />
    <circle cx="3445" cy="889" r="60" stroke="#30B808" stroke-width="10" />
    <circle cx="3383" cy="608" r="25" fill="#30B808" />
    <circle cx="3894" cy="277" r="25" fill="#30B808" />
    <circle cx="3956" cy="503" r="25" fill="#30B808" />
    <circle cx="4050" cy="1458" r="25" fill="#30B808" />
    <circle cx="3771" cy="857" r="110" fill="#30B808" />
    <line
      x1="3430.11"
      y1="830.054"
      x2="3386.11"
      y2="626.054"
      stroke="#30B808"
      stroke-width="10"
    />
    <line
      x1="3663.42"
      y1="872.983"
      x2="3507.42"
      y2="885.983"
      stroke="#30B808"
      stroke-width="10"
    />
    <line
      x1="3864.12"
      y1="1301.07"
      x2="3788.12"
      y2="954.07"
      stroke="#30B808"
      stroke-width="10"
    />
    <line
      x1="3827.1"
      y1="1554.03"
      x2="3864.09"
      y2="1367.03"
      stroke="#30B808"
      stroke-width="10"
    />
    <line
      x1="4031.03"
      y1="1451.02"
      x2="3901.03"
      y2="1355.02"
      stroke="#30B808"
      stroke-width="10"
    />
    <line
      x1="3772.01"
      y1="753.73"
      x2="3788.01"
      y2="457.73"
      stroke="#30B808"
      stroke-width="10"
    />
    <line
      x1="3938.78"
      y1="496.48"
      x2="3825.78"
      y2="440.48"
      stroke="#30B808"
      stroke-width="10"
    />
    <line
      x1="3814.67"
      y1="398.503"
      x2="3878.67"
      y2="287.503"
      stroke="#30B808"
      stroke-width="10"
    />
    <circle cx="4155" cy="113" r="25" fill="#FF7D17" />
    <line
      x1="4137.44"
      y1="96.5067"
      x2="4076.44"
      y2="34.5067"
      stroke="#FF7D17"
      stroke-width="10"
    />
    <circle cx="4644" cy="669" r="30" stroke="#0096DE" stroke-width="10" />
    <circle cx="4357" cy="967" r="60" stroke="#0096DE" stroke-width="10" />
    <circle cx="4412" cy="1135" r="25" fill="#0096DE" />
    <circle cx="4401" cy="444" r="25" fill="#0096DE" />
    <circle cx="4686" cy="541" r="25" fill="#0096DE" />
    <circle cx="4778" cy="1007" r="110" fill="#0096DE" />
    <line
      x1="4614.54"
      y1="649.608"
      x2="4416.54"
      y2="459.608"
      stroke="#0096DE"
      stroke-width="10"
    />
    <line
      x1="4656.15"
      y1="640.801"
      x2="4676.15"
      y2="559.801"
      stroke="#0096DE"
      stroke-width="10"
    />
    <line
      x1="4734.31"
      y1="916.734"
      x2="4653.31"
      y2="697.734"
      stroke="#0096DE"
      stroke-width="10"
    />
    <line
      x1="4675.54"
      y1="991.979"
      x2="4415.54"
      y2="967.979"
      stroke="#0096DE"
      stroke-width="10"
    />
    <line
      x1="4406.21"
      y1="1115.44"
      x2="4378.21"
      y2="1022.44"
      stroke="#0096DE"
      stroke-width="10"
    />
    <circle cx="2896" cy="359" r="110" fill="#0096DE" />
    <circle cx="3345" cy="123" r="25" fill="#0096DE" />
    <circle cx="3555" cy="244" r="25" fill="#0096DE" />
    <circle cx="2761" cy="972" r="25" fill="#0096DE" />
    <circle cx="2584" cy="290" r="25" fill="#0096DE" />
    <circle cx="2726" cy="206" r="30" stroke="#0096DE" stroke-width="10" />
    <circle cx="3202" cy="218" r="30" stroke="#0096DE" stroke-width="10" />
    <circle cx="3012" cy="706" r="60" stroke="#0096DE" stroke-width="10" />
    <line
      x1="2815.58"
      y1="293.644"
      x2="2749.58"
      y2="231.644"
      stroke="#0096DE"
      stroke-width="10"
    />
    <line
      x1="2697.57"
      y1="221.287"
      x2="2602.57"
      y2="278.287"
      stroke="#0096DE"
      stroke-width="10"
    />
    <line
      x1="3173.22"
      y1="233.482"
      x2="2995.22"
      y2="321.482"
      stroke="#0096DE"
      stroke-width="10"
    />
    <line
      x1="2989.24"
      y1="648.537"
      x2="2926.24"
      y2="453.537"
      stroke="#0096DE"
      stroke-width="10"
    />
    <line
      x1="2771.39"
      y1="955.544"
      x2="2968.39"
      y2="749.544"
      stroke="#0096DE"
      stroke-width="10"
    />
    <line
      x1="3534.73"
      y1="239.993"
      x2="3233.73"
      y2="223.993"
      stroke="#0096DE"
      stroke-width="10"
    />
    <line
      x1="3327.79"
      y1="134.147"
      x2="3229.79"
      y2="200.147"
      stroke="#0096DE"
      stroke-width="10"
    />
    <line
      x1="2709.98"
      y1="29.5565"
      x2="2722.98"
      y2="175.557"
      stroke="#0096DE"
      stroke-width="10"
    />
    <circle cx="402" cy="353" r="25" fill="#30B808" />
    <circle cx="663" cy="532" r="25" fill="#30B808" />
    <circle cx="671" cy="1101" r="25" fill="#30B808" />
    <circle cx="230" cy="1390" r="25" fill="#30B808" />
    <circle cx="391" cy="518" r="30" stroke="#30B808" stroke-width="10" />
    <circle cx="152" cy="876" r="115" fill="#30B808" />
    <circle cx="531" cy="1367" r="75" fill="#30B808" />
    <circle cx="324" cy="646" r="70" fill="#30B808" />
    <line
      x1="217.93"
      y1="960.908"
      x2="490.93"
      y2="1307.91"
      stroke="#30B808"
      stroke-width="10"
    />
    <line
      x1="289.011"
      y1="695.986"
      x2="222.011"
      y2="785.986"
      stroke="#30B808"
      stroke-width="10"
    />
    <line
      x1="375.406"
      y1="546.364"
      x2="353.406"
      y2="587.364"
      stroke="#30B808"
      stroke-width="10"
    />
    <line
      x1="400.987"
      y1="374.363"
      x2="392.987"
      y2="484.363"
      stroke="#30B808"
      stroke-width="10"
    />
    <line
      x1="646.597"
      y1="539.738"
      x2="385.597"
      y2="627.738"
      stroke="#30B808"
      stroke-width="10"
    />
    <line
      x1="661.535"
      y1="1117.11"
      x2="570.535"
      y2="1313.11"
      stroke="#30B808"
      stroke-width="10"
    />
    <line
      x1="254.782"
      y1="1389"
      x2="460.782"
      y2="1380"
      stroke="#30B808"
      stroke-width="10"
    />
    <circle
      cx="160"
      cy="879"
      r="155"
      stroke="var(--pst-color-text-muted)"
      stroke-opacity="0.4"
      stroke-width="10"
    />
    <circle
      cx="1269"
      cy="1516"
      r="175"
      stroke="var(--pst-color-text-muted)"
      stroke-opacity="0.4"
      stroke-width="10"
    />
    <circle
      cx="2804"
      cy="1439"
      r="175"
      stroke="var(--pst-color-text-muted)"
      stroke-opacity="0.4"
      stroke-width="10"
    />
    <circle
      cx="2896"
      cy="365"
      r="160"
      stroke="var(--pst-color-text-muted)"
      stroke-opacity="0.4"
      stroke-width="10"
    />
    <circle
      cx="3762"
      cy="862"
      r="160"
      stroke="var(--pst-color-text-muted)"
      stroke-opacity="0.4"
      stroke-width="10"
    />
    <circle
      cx="4778"
      cy="1003"
      r="155"
      stroke="var(--pst-color-text-muted)"
      stroke-opacity="0.4"
      stroke-width="10"
    />
    <circle
      cx="989"
      cy="327"
      r="155"
      stroke="var(--pst-color-text-muted)"
      stroke-opacity="0.4"
      stroke-width="10"
    />
    <circle
      cx="1809"
      cy="643"
      r="175"
      stroke="var(--pst-color-text-muted)"
      stroke-opacity="0.4"
      stroke-width="10"
    />
    <circle
      cx="680"
      cy="903"
      r="55"
      stroke="var(--pst-color-text-muted)"
      stroke-opacity="0.4"
      stroke-width="10"
    />
    <circle
      cx="1241"
      cy="667"
      r="55"
      stroke="var(--pst-color-text-muted)"
      stroke-opacity="0.4"
      stroke-width="10"
    />
    <circle
      cx="108"
      cy="1165"
      r="35"
      stroke="var(--pst-color-text-muted)"
      stroke-opacity="0.4"
      stroke-width="10"
    />
    <circle
      cx="785"
      cy="1360"
      r="35"
      stroke="var(--pst-color-text-muted)"
      stroke-opacity="0.4"
      stroke-width="10"
    />
    <circle
      cx="1120"
      cy="1129"
      r="35"
      stroke="var(--pst-color-text-muted)"
      stroke-opacity="0.4"
      stroke-width="10"
    />
    <circle
      cx="1544"
      cy="996"
      r="25"
      stroke="var(--pst-color-text-muted)"
      stroke-opacity="0.4"
      stroke-width="10"
    />
    <circle
      cx="1910"
      cy="1235"
      r="25"
      stroke="var(--pst-color-text-muted)"
      stroke-opacity="0.4"
      stroke-width="10"
    />
    <circle
      cx="3204"
      cy="319"
      r="25"
      stroke="var(--pst-color-text-muted)"
      stroke-opacity="0.4"
      stroke-width="10"
    />
    <circle
      cx="3667"
      cy="483"
      r="25"
      stroke="var(--pst-color-text-muted)"
      stroke-opacity="0.4"
      stroke-width="10"
    />
    <circle
      cx="3898"
      cy="143"
      r="25"
      stroke="var(--pst-color-text-muted)"
      stroke-opacity="0.4"
      stroke-width="10"
    />
    <circle
      cx="265"
      cy="505"
      r="35"
      stroke="var(--pst-color-text-muted)"
      stroke-opacity="0.4"
      stroke-width="10"
    />
    <circle
      cx="3072"
      cy="1238"
      r="35"
      stroke="var(--pst-color-text-muted)"
      stroke-opacity="0.4"
      stroke-width="10"
    />
    <circle
      cx="4021"
      cy="1298"
      r="35"
      stroke="var(--pst-color-text-muted)"
      stroke-opacity="0.4"
      stroke-width="10"
    />
    <circle
      cx="4204"
      cy="862"
      r="35"
      stroke="var(--pst-color-text-muted)"
      stroke-opacity="0.4"
      stroke-width="10"
    />
    <circle
      cx="1255"
      cy="226"
      r="55"
      stroke="var(--pst-color-text-muted)"
      stroke-opacity="0.4"
      stroke-width="10"
    />
    <circle
      cx="1814"
      cy="248"
      r="55"
      stroke="var(--pst-color-text-muted)"
      stroke-opacity="0.4"
      stroke-width="10"
    />
    <circle
      cx="2036"
      cy="860"
      r="55"
      stroke="var(--pst-color-text-muted)"
      stroke-opacity="0.4"
      stroke-width="10"
    />
    <circle
      cx="2378"
      cy="270"
      r="55"
      stroke="var(--pst-color-text-muted)"
      stroke-opacity="0.4"
      stroke-width="10"
    />
    <circle
      cx="3528"
      cy="1174"
      r="55"
      stroke="var(--pst-color-text-muted)"
      stroke-opacity="0.4"
      stroke-width="10"
    />
    <circle
      cx="2728"
      cy="822"
      r="55"
      stroke="var(--pst-color-text-muted)"
      stroke-opacity="0.4"
      stroke-width="10"
    />
    <circle
      cx="4326"
      cy="591"
      r="55"
      stroke="var(--pst-color-text-muted)"
      stroke-opacity="0.4"
      stroke-width="10"
    />
    <circle
      cx="4497"
      cy="1372"
      r="55"
      stroke="var(--pst-color-text-muted)"
      stroke-opacity="0.4"
      stroke-width="10"
    />
    <circle
      cx="2246"
      cy="1427"
      r="55"
      stroke="var(--pst-color-text-muted)"
      stroke-opacity="0.4"
      stroke-width="10"
    />
    <circle
      cx="4183"
      cy="1461"
      r="30"
      fill="var(--pst-color-text-muted)"
      fill-opacity="0.4"
    />
    <circle
      cx="4723"
      cy="1521"
      r="30"
      fill="var(--pst-color-text-muted)"
      fill-opacity="0.4"
    />
    <circle
      cx="4327"
      cy="330"
      r="30"
      fill="var(--pst-color-text-muted)"
      fill-opacity="0.4"
    />
    <circle
      cx="4657"
      cy="899"
      r="30"
      fill="var(--pst-color-text-muted)"
      fill-opacity="0.4"
    />
    <circle
      cx="3554"
      cy="622"
      r="40"
      fill="var(--pst-color-text-muted)"
      fill-opacity="0.4"
    />
    <circle
      cx="3344"
      cy="478"
      r="40"
      fill="var(--pst-color-text-muted)"
      fill-opacity="0.4"
    />
    <circle
      cx="2578"
      cy="511"
      r="40"
      fill="var(--pst-color-text-muted)"
      fill-opacity="0.4"
    />
    <circle
      cx="1385"
      cy="371"
      r="40"
      fill="var(--pst-color-text-muted)"
      fill-opacity="0.4"
    />
    <circle
      cx="1613"
      cy="65"
      r="40"
      fill="var(--pst-color-text-muted)"
      fill-opacity="0.4"
    />
    <circle
      cx="2054"
      cy="107"
      r="40"
      fill="var(--pst-color-text-muted)"
      fill-opacity="0.4"
    />
    <circle
      cx="4048"
      cy="414"
      r="40"
      fill="var(--pst-color-text-muted)"
      fill-opacity="0.4"
    />
    <circle
      cx="4794"
      cy="1268"
      r="40"
      fill="var(--pst-color-text-muted)"
      fill-opacity="0.4"
    />
    <circle
      cx="3696"
      cy="1312"
      r="40"
      fill="var(--pst-color-text-muted)"
      fill-opacity="0.4"
    />
    <circle
      cx="453"
      cy="772"
      r="40"
      fill="var(--pst-color-text-muted)"
      fill-opacity="0.4"
    />
    <circle
      cx="2238"
      cy="752"
      r="40"
      fill="var(--pst-color-text-muted)"
      fill-opacity="0.4"
    />
    <circle
      cx="1927"
      cy="1535"
      r="40"
      fill="var(--pst-color-text-muted)"
      fill-opacity="0.4"
    />
    <circle
      cx="1885"
      cy="1052"
      r="40"
      fill="var(--pst-color-text-muted)"
      fill-opacity="0.4"
    />
    <circle
      cx="1465"
      cy="819"
      r="40"
      fill="var(--pst-color-text-muted)"
      fill-opacity="0.4"
    />
    <circle
      cx="770"
      cy="446"
      r="40"
      fill="var(--pst-color-text-muted)"
      fill-opacity="0.4"
    />
    <circle
      cx="4042"
      cy="677"
      r="60"
      fill="var(--pst-color-text-muted)"
      fill-opacity="0.4"
    />
    <circle
      cx="2892"
      cy="1015"
      r="60"
      fill="var(--pst-color-text-muted)"
      fill-opacity="0.4"
    />
    <circle
      cx="2446"
      cy="1037"
      r="55"
      fill="var(--pst-color-text-muted)"
      fill-opacity="0.4"
    />
    <circle
      cx="2140"
      cy="513"
      r="55"
      fill="var(--pst-color-text-muted)"
      fill-opacity="0.4"
    />
    <circle
      cx="682"
      cy="259"
      r="55"
      fill="var(--pst-color-text-muted)"
      fill-opacity="0.4"
    />
    <circle
      cx="827"
      cy="1022"
      r="55"
      fill="var(--pst-color-text-muted)"
      fill-opacity="0.4"
    />
    <circle
      cx="516"
      cy="1084"
      r="55"
      fill="var(--pst-color-text-muted)"
      fill-opacity="0.4"
    />
    <circle
      cx="926"
      cy="1478"
      r="55"
      fill="var(--pst-color-text-muted)"
      fill-opacity="0.4"
    />
    <circle
      cx="620"
      cy="1577"
      r="55"
      fill="var(--pst-color-text-muted)"
      fill-opacity="0.4"
    />
    <circle
      cx="3215"
      cy="72"
      r="50"
      fill="var(--pst-color-text-muted)"
      fill-opacity="0.4"
    />
    <circle
      cx="2861"
      cy="50"
      r="50"
      fill="var(--pst-color-text-muted)"
      fill-opacity="0.4"
    />
    <circle
      cx="4035"
      cy="1080"
      r="60"
      fill="var(--pst-color-text-muted)"
      fill-opacity="0.4"
    />
    <circle
      cx="4708"
      cy="1147"
      r="30"
      fill="var(--pst-color-text-muted)"
      fill-opacity="0.4"
    />
    <circle
      cx="4268"
      cy="1291"
      r="30"
      fill="var(--pst-color-text-muted)"
      fill-opacity="0.4"
    />
    <circle
      cx="3885"
      cy="966"
      r="25"
      fill="var(--pst-color-text-muted)"
      fill-opacity="0.4"
    />
    <circle
      cx="3265"
      cy="674"
      r="25"
      fill="var(--pst-color-text-muted)"
      fill-opacity="0.4"
    />
    <circle
      cx="3203"
      cy="1024"
      r="25"
      fill="var(--pst-color-text-muted)"
      fill-opacity="0.4"
    />
    <circle
      cx="2942"
      cy="1327"
      r="25"
      fill="var(--pst-color-text-muted)"
      fill-opacity="0.4"
    />
    <circle
      cx="2840"
      cy="1263"
      r="25"
      fill="var(--pst-color-text-muted)"
      fill-opacity="0.4"
    />
    <circle
      cx="2681"
      cy="1301"
      r="25"
      fill="var(--pst-color-text-muted)"
      fill-opacity="0.4"
    />
    <circle
      cx="2623"
      cy="1436"
      r="25"
      fill="var(--pst-color-text-muted)"
      fill-opacity="0.4"
    />
    <circle
      cx="2225"
      cy="1100"
      r="25"
      fill="var(--pst-color-text-muted)"
      fill-opacity="0.4"
    />
    <circle
      cx="2455"
      cy="815"
      r="25"
      fill="var(--pst-color-text-muted)"
      fill-opacity="0.4"
    />
    <circle
      cx="2743"
      cy="421"
      r="25"
      fill="var(--pst-color-text-muted)"
      fill-opacity="0.4"
    />
    <circle
      cx="1975"
      cy="580"
      r="25"
      fill="var(--pst-color-text-muted)"
      fill-opacity="0.4"
    />
    <circle
      cx="1941"
      cy="764"
      r="25"
      fill="var(--pst-color-text-muted)"
      fill-opacity="0.4"
    />
    <circle
      cx="1637"
      cy="648"
      r="25"
      fill="var(--pst-color-text-muted)"
      fill-opacity="0.4"
    />
    <circle
      cx="1658"
      cy="545"
      r="25"
      fill="var(--pst-color-text-muted)"
      fill-opacity="0.4"
    />
    <circle
      cx="1808"
      cy="464"
      r="25"
      fill="var(--pst-color-text-muted)"
      fill-opacity="0.4"
    />
    <circle
      cx="1139"
      cy="275"
      r="25"
      fill="var(--pst-color-text-muted)"
      fill-opacity="0.4"
    />
    <circle
      cx="1148"
      cy="352"
      r="25"
      fill="var(--pst-color-text-muted)"
      fill-opacity="0.4"
    />
    <circle
      cx="835"
      cy="296"
      r="25"
      fill="var(--pst-color-text-muted)"
      fill-opacity="0.4"
    />
    <circle
      cx="831"
      cy="652"
      r="25"
      fill="var(--pst-color-text-muted)"
      fill-opacity="0.4"
    />
    <circle
      cx="535"
      cy="442"
      r="25"
      fill="var(--pst-color-text-muted)"
      fill-opacity="0.4"
    />
    <circle
      cx="308"
      cy="828"
      r="25"
      fill="var(--pst-color-text-muted)"
      fill-opacity="0.4"
    />
    <circle
      cx="295"
      cy="952"
      r="25"
      fill="var(--pst-color-text-muted)"
      fill-opacity="0.4"
    />
    <circle
      cx="128"
      cy="1033"
      r="25"
      fill="var(--pst-color-text-muted)"
      fill-opacity="0.4"
    />
    <circle
      cx="312"
      cy="1239"
      r="25"
      fill="var(--pst-color-text-muted)"
      fill-opacity="0.4"
    />
    <circle
      cx="423"
      cy="1509"
      r="25"
      fill="var(--pst-color-text-muted)"
      fill-opacity="0.4"
    />
    <circle
      cx="1088"
      cy="1496"
      r="25"
      fill="var(--pst-color-text-muted)"
      fill-opacity="0.4"
    />
    <circle
      cx="1208"
      cy="1350"
      r="25"
      fill="var(--pst-color-text-muted)"
      fill-opacity="0.4"
    />
    <circle
      cx="1765"
      cy="1354"
      r="25"
      fill="var(--pst-color-text-muted)"
      fill-opacity="0.4"
    />
    <circle
      cx="1984"
      cy="1363"
      r="25"
      fill="var(--pst-color-text-muted)"
      fill-opacity="0.4"
    />
    <circle
      cx="1748"
      cy="994"
      r="25"
      fill="var(--pst-color-text-muted)"
      fill-opacity="0.4"
    />
    <circle
      cx="1546"
      cy="175"
      r="25"
      fill="var(--pst-color-text-muted)"
      fill-opacity="0.4"
    />
    <circle
      cx="2838"
      cy="512"
      r="25"
      fill="var(--pst-color-text-muted)"
      fill-opacity="0.4"
    />
    <circle
      cx="3053"
      cy="406"
      r="25"
      fill="var(--pst-color-text-muted)"
      fill-opacity="0.4"
    />
    <circle
      cx="3020"
      cy="258"
      r="25"
      fill="var(--pst-color-text-muted)"
      fill-opacity="0.4"
    />
    <circle
      cx="2881"
      cy="205"
      r="25"
      fill="var(--pst-color-text-muted)"
      fill-opacity="0.4"
    />
    <circle
      cx="3633"
      cy="294"
      r="25"
      fill="var(--pst-color-text-muted)"
      fill-opacity="0.4"
    />
    <circle
      cx="3560"
      cy="75"
      r="25"
      fill="var(--pst-color-text-muted)"
      fill-opacity="0.4"
    />
    <circle
      cx="3898"
      cy="777"
      r="25"
      fill="var(--pst-color-text-muted)"
      fill-opacity="0.4"
    />
    <circle
      cx="3919"
      cy="1466"
      r="30"
      fill="var(--pst-color-text-muted)"
      fill-opacity="0.4"
    />
    <circle
      cx="3658"
      cy="1481"
      r="30"
      fill="var(--pst-color-text-muted)"
      fill-opacity="0.4"
    />
    <circle
      cx="3667"
      cy="990"
      r="25"
      fill="var(--pst-color-text-muted)"
      fill-opacity="0.4"
    />
    <circle
      cx="4927"
      cy="1284"
      r="30"
      fill="var(--pst-color-text-muted)"
      fill-opacity="0.4"
    />
    <circle
      cx="4997"
      cy="1408"
      r="25"
      stroke="var(--pst-color-text-muted)"
      stroke-opacity="0.4"
      stroke-width="10"
    />
    <line
      x1="804.152"
      y1="455.487"
      x2="1192.15"
      y2="640.487"
      stroke="var(--pst-color-text-muted)"
      stroke-opacity="0.4"
      stroke-width="10"
    />
    <line
      x1="701.464"
      y1="306.747"
      x2="754.464"
      y2="411.747"
      stroke="var(--pst-color-text-muted)"
      stroke-opacity="0.4"
      stroke-width="10"
    />
    <line
      x1="728.936"
      y1="275.088"
      x2="812.936"
      y2="291.088"
      stroke="var(--pst-color-text-muted)"
      stroke-opacity="0.4"
      stroke-width="10"
    />
    <line
      x1="760.919"
      y1="468.898"
      x2="691.919"
      y2="846.898"
      stroke="var(--pst-color-text-muted)"
      stroke-opacity="0.4"
      stroke-width="10"
    />
    <line
      x1="474.305"
      y1="788.563"
      x2="628.305"
      y2="868.563"
      stroke="var(--pst-color-text-muted)"
      stroke-opacity="0.4"
      stroke-width="10"
    />
    <line
      x1="528.888"
      y1="458.051"
      x2="468.888"
      y2="737.051"
      stroke="var(--pst-color-text-muted)"
      stroke-opacity="0.4"
      stroke-width="10"
    />
    <line
      x1="639.532"
      y1="288.312"
      x2="295.532"
      y2="490.312"
      stroke="var(--pst-color-text-muted)"
      stroke-opacity="0.4"
      stroke-width="10"
    />
    <line
      x1="422.873"
      y1="787.636"
      x2="323.873"
      y2="827.636"
      stroke="var(--pst-color-text-muted)"
      stroke-opacity="0.4"
      stroke-width="10"
    />
    <line
      x1="468.372"
      y1="1066.25"
      x2="311.372"
      y2="969.254"
      stroke="var(--pst-color-text-muted)"
      stroke-opacity="0.4"
      stroke-width="10"
    />
    <line
      x1="761.481"
      y1="1330.55"
      x2="551.481"
      y2="1122.55"
      stroke="var(--pst-color-text-muted)"
      stroke-opacity="0.4"
      stroke-width="10"
    />
    <line
      x1="795.017"
      y1="1321.58"
      x2="816.017"
      y2="1069.58"
      stroke="var(--pst-color-text-muted)"
      stroke-opacity="0.4"
      stroke-width="10"
    />
    <line
      x1="288.279"
      y1="1234.69"
      x2="138.279"
      y2="1179.69"
      stroke="var(--pst-color-text-muted)"
      stroke-opacity="0.4"
      stroke-width="10"
    />
    <line
      x1="463.927"
      y1="1095.91"
      x2="145.927"
      y2="1155.91"
      stroke="var(--pst-color-text-muted)"
      stroke-opacity="0.4"
      stroke-width="10"
    />
    <line
      x1="117.993"
      y1="1053.27"
      x2="113.993"
      y2="1128.27"
      stroke="var(--pst-color-text-muted)"
      stroke-opacity="0.4"
      stroke-width="10"
    />
    <line
      x1="1082.4"
      y1="1116.74"
      x2="872.399"
      y2="1045.74"
      stroke="var(--pst-color-text-muted)"
      stroke-opacity="0.4"
      stroke-width="10"
    />
    <line
      x1="1434.47"
      y1="837.778"
      x2="870.474"
      y2="1011.78"
      stroke="var(--pst-color-text-muted)"
      stroke-opacity="0.4"
      stroke-width="10"
    />
    <line
      x1="1430.04"
      y1="802.031"
      x2="1291.04"
      y2="700.031"
      stroke="var(--pst-color-text-muted)"
      stroke-opacity="0.4"
      stroke-width="10"
    />
    <line
      x1="1197.33"
      y1="1333.78"
      x2="1132.33"
      y2="1162.78"
      stroke="var(--pst-color-text-muted)"
      stroke-opacity="0.4"
      stroke-width="10"
    />
    <line
      x1="974.424"
      y1="1488.02"
      x2="1068.42"
      y2="1496.02"
      stroke="var(--pst-color-text-muted)"
      stroke-opacity="0.4"
      stroke-width="10"
    />
    <line
      x1="885.408"
      y1="1499.8"
      x2="667.408"
      y2="1563.8"
      stroke="var(--pst-color-text-muted)"
      stroke-opacity="0.4"
      stroke-width="10"
    />
    <line
      x1="1167.37"
      y1="351.014"
      x2="1354.37"
      y2="365.014"
      stroke="var(--pst-color-text-muted)"
      stroke-opacity="0.4"
      stroke-width="10"
    />
    <line
      x1="1265.44"
      y1="612.946"
      x2="1361.44"
      y2="399.945"
      stroke="var(--pst-color-text-muted)"
      stroke-opacity="0.4"
      stroke-width="10"
    />
    <line
      x1="1416.62"
      y1="390.74"
      x2="1647.62"
      y2="532.74"
      stroke="var(--pst-color-text-muted)"
      stroke-opacity="0.4"
      stroke-width="10"
    />
    <line
      x1="1297.83"
      y1="661.003"
      x2="1615.82"
      y2="649.933"
      stroke="var(--pst-color-text-muted)"
      stroke-opacity="0.4"
      stroke-width="10"
    />
    <line
      x1="1309.11"
      y1="216.08"
      x2="1525.11"
      y2="177.08"
      stroke="var(--pst-color-text-muted)"
      stroke-opacity="0.4"
      stroke-width="10"
    />
    <line
      x1="1154.48"
      y1="265.238"
      x2="1204.48"
      y2="249.238"
      stroke="var(--pst-color-text-muted)"
      stroke-opacity="0.4"
      stroke-width="10"
    />
    <line
      x1="1136.26"
      y1="31.3844"
      x2="1225.26"
      y2="176.384"
      stroke="var(--pst-color-text-muted)"
      stroke-opacity="0.4"
      stroke-width="10"
    />
    <line
      x1="1767.7"
      y1="213.754"
      x2="1634.7"
      y2="96.7541"
      stroke="var(--pst-color-text-muted)"
      stroke-opacity="0.4"
      stroke-width="10"
    />
    <line
      x1="1811"
      y1="441"
      x2="1811"
      y2="306"
      stroke="var(--pst-color-text-muted)"
      stroke-opacity="0.4"
      stroke-width="10"
    />
    <line
      x1="2098.81"
      y1="490.846"
      x2="1856.81"
      y2="289.846"
      stroke="var(--pst-color-text-muted)"
      stroke-opacity="0.4"
      stroke-width="10"
    />
    <line
      x1="2124.08"
      y1="464.873"
      x2="2066.08"
      y2="137.873"
      stroke="var(--pst-color-text-muted)"
      stroke-opacity="0.4"
      stroke-width="10"
    />
    <line
      x1="1866.31"
      y1="220.784"
      x2="2026.31"
      y2="118.784"
      stroke="var(--pst-color-text-muted)"
      stroke-opacity="0.4"
      stroke-width="10"
    />
    <line
      x1="2078.43"
      y1="79.4965"
      x2="2133.43"
      y2="23.4965"
      stroke="var(--pst-color-text-muted)"
      stroke-opacity="0.4"
      stroke-width="10"
    />
    <line
      x1="2023.63"
      y1="90.4024"
      x2="1919.63"
      y2="34.4024"
      stroke="var(--pst-color-text-muted)"
      stroke-opacity="0.4"
      stroke-width="10"
    />
    <line
      x1="2327.72"
      y1="244.45"
      x2="2083.72"
      y2="119.45"
      stroke="var(--pst-color-text-muted)"
      stroke-opacity="0.4"
      stroke-width="10"
    />
    <line
      x1="2337.61"
      y1="310.459"
      x2="2177.61"
      y2="477.459"
      stroke="var(--pst-color-text-muted)"
      stroke-opacity="0.4"
      stroke-width="10"
    />
    <line
      x1="2158.61"
      y1="561.058"
      x2="2225.61"
      y2="720.058"
      stroke="var(--pst-color-text-muted)"
      stroke-opacity="0.4"
      stroke-width="10"
    />
    <line
      x1="1989.31"
      y1="569.293"
      x2="2095.31"
      y2="531.293"
      stroke="var(--pst-color-text-muted)"
      stroke-opacity="0.4"
      stroke-width="10"
    />
    <line
      x1="2088.63"
      y1="833.596"
      x2="2207.63"
      y2="769.596"
      stroke="var(--pst-color-text-muted)"
      stroke-opacity="0.4"
      stroke-width="10"
    />
    <line
      x1="1955.74"
      y1="778.678"
      x2="1995.74"
      y2="823.678"
      stroke="var(--pst-color-text-muted)"
      stroke-opacity="0.4"
      stroke-width="10"
    />
    <line
      x1="2003.91"
      y1="908.119"
      x2="1908.91"
      y2="1027.12"
      stroke="var(--pst-color-text-muted)"
      stroke-opacity="0.4"
      stroke-width="10"
    />
    <line
      x1="1854.28"
      y1="1041.69"
      x2="1756.28"
      y2="1005.69"
      stroke="var(--pst-color-text-muted)"
      stroke-opacity="0.4"
      stroke-width="10"
    />
    <line
      x1="2202.36"
      y1="1388.43"
      x2="1911.36"
      y2="1079.43"
      stroke="var(--pst-color-text-muted)"
      stroke-opacity="0.4"
      stroke-width="10"
    />
    <line
      x1="2199.41"
      y1="1453.8"
      x2="1961.41"
      y2="1523.8"
      stroke="var(--pst-color-text-muted)"
      stroke-opacity="0.4"
      stroke-width="10"
    />
    <line
      x1="1915"
      y1="1262.83"
      x2="1923"
      y2="1498.83"
      stroke="var(--pst-color-text-muted)"
      stroke-opacity="0.4"
      stroke-width="10"
    />
    <line
      x1="1962.09"
      y1="1376.93"
      x2="1733.09"
      y2="1556.93"
      stroke="var(--pst-color-text-muted)"
      stroke-opacity="0.4"
      stroke-width="10"
    />
    <line
      x1="1902.29"
      y1="1506.36"
      x2="1778.29"
      y2="1369.36"
      stroke="var(--pst-color-text-muted)"
      stroke-opacity="0.4"
      stroke-width="10"
    />
    <line
      x1="2242"
      y1="1557.87"
      x2="2244"
      y2="1478.87"
      stroke="var(--pst-color-text-muted)"
      stroke-opacity="0.4"
      stroke-width="10"
    />
    <line
      x1="2304.08"
      y1="1430"
      x2="2603.08"
      y2="1435"
      stroke="var(--pst-color-text-muted)"
      stroke-opacity="0.4"
      stroke-width="10"
    />
    <line
      x1="2082.97"
      y1="883.405"
      x2="2399.97"
      y2="1019.41"
      stroke="var(--pst-color-text-muted)"
      stroke-opacity="0.4"
      stroke-width="10"
    />
    <line
      x1="2239"
      y1="787.168"
      x2="2229"
      y2="1085.17"
      stroke="var(--pst-color-text-muted)"
      stroke-opacity="0.4"
      stroke-width="10"
    />
    <line
      x1="2669"
      y1="818"
      x2="2472"
      y2="818"
      stroke="var(--pst-color-text-muted)"
      stroke-opacity="0.4"
      stroke-width="10"
    />
    <line
      x1="2695.46"
      y1="772.085"
      x2="2589.46"
      y2="541.085"
      stroke="var(--pst-color-text-muted)"
      stroke-opacity="0.4"
      stroke-width="10"
    />
    <line
      x1="2745.29"
      y1="769.318"
      x2="2830.29"
      y2="531.318"
      stroke="var(--pst-color-text-muted)"
      stroke-opacity="0.4"
      stroke-width="10"
    />
    <line
      x1="2491.86"
      y1="1008.11"
      x2="2681.86"
      y2="855.106"
      stroke="var(--pst-color-text-muted)"
      stroke-opacity="0.4"
      stroke-width="10"
    />
    <line
      x1="2762.57"
      y1="863.498"
      x2="2867.57"
      y2="970.498"
      stroke="var(--pst-color-text-muted)"
      stroke-opacity="0.4"
      stroke-width="10"
    />
    <line
      x1="2726.4"
      y1="432.387"
      x2="2609.4"
      y2="496.387"
      stroke="var(--pst-color-text-muted)"
      stroke-opacity="0.4"
      stroke-width="10"
    />
    <line
      x1="2414.82"
      y1="314.776"
      x2="2554.82"
      y2="480.776"
      stroke="var(--pst-color-text-muted)"
      stroke-opacity="0.4"
      stroke-width="10"
    />
    <line
      x1="2509.37"
      y1="31.4381"
      x2="2404.37"
      y2="219.438"
      stroke="var(--pst-color-text-muted)"
      stroke-opacity="0.4"
      stroke-width="10"
    />
    <line
      x1="2818.1"
      y1="63.5377"
      x2="2429.1"
      y2="243.538"
      stroke="var(--pst-color-text-muted)"
      stroke-opacity="0.4"
      stroke-width="10"
    />
    <line
      x1="2874"
      y1="89.8353"
      x2="2877"
      y2="180.835"
      stroke="var(--pst-color-text-muted)"
      stroke-opacity="0.4"
      stroke-width="10"
    />
    <line
      x1="3183.49"
      y1="99.5836"
      x2="3035.49"
      y2="243.584"
      stroke="var(--pst-color-text-muted)"
      stroke-opacity="0.4"
      stroke-width="10"
    />
    <line
      x1="3317.22"
      y1="454.278"
      x2="3218.22"
      y2="340.278"
      stroke="var(--pst-color-text-muted)"
      stroke-opacity="0.4"
      stroke-width="10"
    />
    <line
      x1="3076.23"
      y1="409.154"
      x2="3312.23"
      y2="469.154"
      stroke="var(--pst-color-text-muted)"
      stroke-opacity="0.4"
      stroke-width="10"
    />
    <line
      x1="3548.41"
      y1="93.3594"
      x2="3358.41"
      y2="448.359"
      stroke="var(--pst-color-text-muted)"
      stroke-opacity="0.4"
      stroke-width="10"
    />
    <line
      x1="3619.68"
      y1="304.223"
      x2="3376.68"
      y2="458.223"
      stroke="var(--pst-color-text-muted)"
      stroke-opacity="0.4"
      stroke-width="10"
    />
    <line
      x1="3996.66"
      y1="659.419"
      x2="3690.66"
      y2="497.419"
      stroke="var(--pst-color-text-muted)"
      stroke-opacity="0.4"
      stroke-width="10"
    />
    <line
      x1="3181"
      y1="1022"
      x2="2946"
      y2="1022"
      stroke="var(--pst-color-text-muted)"
      stroke-opacity="0.4"
      stroke-width="10"
    />
    <line
      x1="3204.07"
      y1="1005.15"
      x2="3258.07"
      y2="692.15"
      stroke="var(--pst-color-text-muted)"
      stroke-opacity="0.4"
      stroke-width="10"
    />
    <line
      x1="2940.45"
      y1="981.697"
      x2="3525.38"
      y2="635.633"
      stroke="var(--pst-color-text-muted)"
      stroke-opacity="0.4"
      stroke-width="10"
    />
    <line
      x1="2876.93"
      y1="1066.84"
      x2="2846.93"
      y2="1242.84"
      stroke="var(--pst-color-text-muted)"
      stroke-opacity="0.4"
      stroke-width="10"
    />
    <line
      x1="3042.02"
      y1="1256.99"
      x2="2960.02"
      y2="1318.99"
      stroke="var(--pst-color-text-muted)"
      stroke-opacity="0.4"
      stroke-width="10"
    />
    <line
      x1="3264.75"
      y1="1552.63"
      x2="3088.75"
      y2="1268.63"
      stroke="var(--pst-color-text-muted)"
      stroke-opacity="0.4"
      stroke-width="10"
    />
    <line
      x1="3558.03"
      y1="1125.96"
      x2="3653.03"
      y2="1001.96"
      stroke="var(--pst-color-text-muted)"
      stroke-opacity="0.4"
      stroke-width="10"
    />
    <line
      x1="3571.11"
      y1="1212.08"
      x2="3668.11"
      y2="1289.08"
      stroke="var(--pst-color-text-muted)"
      stroke-opacity="0.4"
      stroke-width="10"
    />
    <line
      x1="3688.9"
      y1="1349.01"
      x2="3665.9"
      y2="1460.01"
      stroke="var(--pst-color-text-muted)"
      stroke-opacity="0.4"
      stroke-width="10"
    />
    <line
      x1="4006.26"
      y1="1327.62"
      x2="3934.26"
      y2="1444.62"
      stroke="var(--pst-color-text-muted)"
      stroke-opacity="0.4"
      stroke-width="10"
    />
    <line
      x1="4033.99"
      y1="1136.31"
      x2="4025.99"
      y2="1263.31"
      stroke="var(--pst-color-text-muted)"
      stroke-opacity="0.4"
      stroke-width="10"
    />
    <line
      x1="4048.5"
      y1="1325.43"
      x2="4163.5"
      y2="1438.43"
      stroke="var(--pst-color-text-muted)"
      stroke-opacity="0.4"
      stroke-width="10"
    />
    <line
      x1="3905.18"
      y1="976.144"
      x2="3991.18"
      y2="1047.14"
      stroke="var(--pst-color-text-muted)"
      stroke-opacity="0.4"
      stroke-width="10"
    />
    <line
      x1="4180.1"
      y1="886.86"
      x2="4074.1"
      y2="1038.86"
      stroke="var(--pst-color-text-muted)"
      stroke-opacity="0.4"
      stroke-width="10"
    />
    <line
      x1="4260.04"
      y1="1264.61"
      x2="4215.04"
      y2="895.605"
      stroke="var(--pst-color-text-muted)"
      stroke-opacity="0.4"
      stroke-width="10"
    />
    <line
      x1="4184.5"
      y1="828.569"
      x2="4078.5"
      y2="724.569"
      stroke="var(--pst-color-text-muted)"
      stroke-opacity="0.4"
      stroke-width="10"
    />
    <line
      x1="3997.93"
      y1="708.055"
      x2="3918.93"
      y2="765.055"
      stroke="var(--pst-color-text-muted)"
      stroke-opacity="0.4"
      stroke-width="10"
    />
    <line
      x1="4271.42"
      y1="609.793"
      x2="4096.42"
      y2="661.793"
      stroke="var(--pst-color-text-muted)"
      stroke-opacity="0.4"
      stroke-width="10"
    />
    <line
      x1="4278.34"
      y1="560.236"
      x2="4077.34"
      y2="434.236"
      stroke="var(--pst-color-text-muted)"
      stroke-opacity="0.4"
      stroke-width="10"
    />
    <line
      x1="4028.62"
      y1="384.403"
      x2="3908.61"
      y2="165.403"
      stroke="var(--pst-color-text-muted)"
      stroke-opacity="0.4"
      stroke-width="10"
    />
    <line
      x1="4082.68"
      y1="397.179"
      x2="4304.68"
      y2="336.179"
      stroke="var(--pst-color-text-muted)"
      stroke-opacity="0.4"
      stroke-width="10"
    />
    <line
      x1="4368.37"
      y1="632.311"
      x2="4638.38"
      y2="879.311"
      stroke="var(--pst-color-text-muted)"
      stroke-opacity="0.4"
      stroke-width="10"
    />
    <line
      x1="4690.74"
      y1="1167.32"
      x2="4541.74"
      y2="1335.32"
      stroke="var(--pst-color-text-muted)"
      stroke-opacity="0.4"
      stroke-width="10"
    />
    <line
      x1="4760.54"
      y1="1284.76"
      x2="4553.54"
      y2="1351.76"
      stroke="var(--pst-color-text-muted)"
      stroke-opacity="0.4"
      stroke-width="10"
    />
    <line
      x1="4786.84"
      y1="1302.26"
      x2="4735.84"
      y2="1498.26"
      stroke="var(--pst-color-text-muted)"
      stroke-opacity="0.4"
      stroke-width="10"
    />
    <line
      x1="4901.8"
      y1="1284"
      x2="4827.8"
      y2="1281"
      stroke="var(--pst-color-text-muted)"
      stroke-opacity="0.4"
      stroke-width="10"
    />
    <line
      x1="4971.12"
      y1="1394.09"
      x2="4826.12"
      y2="1292.09"
      stroke="var(--pst-color-text-muted)"
      stroke-opacity="0.4"
      stroke-width="10"
    />
    <line
      x1="2663.24"
      y1="1285.3"
      x2="2479.24"
      y2="1075.3"
      stroke="var(--pst-color-text-muted)"
      stroke-opacity="0.4"
      stroke-width="10"
    />
    <line
      x1="1531.35"
      y1="971.844"
      x2="1483.35"
      y2="850.844"
      stroke="var(--pst-color-text-muted)"
      stroke-opacity="0.4"
      stroke-width="10"
    />
    <line
      x1="438.592"
      y1="1515.26"
      x2="575.591"
      y2="1561.26"
      stroke="var(--pst-color-text-muted)"
      stroke-opacity="0.4"
      stroke-width="10"
    />
    <line
      x1="819.313"
      y1="672.53"
      x2="714.313"
      y2="851.53"
      stroke="var(--pst-color-text-muted)"
      stroke-opacity="0.4"
      stroke-width="10"
    />
  </svg>
